<mxfile host="app.diagrams.net" modified="2020-10-30T19:58:00.762Z" agent="5.0 (Windows)" etag="fdZVS8vUo16U-lyWmtF9" version="13.8.8" type="github">
  <diagram id="3I0PgJgrRdV3c6PESrWr" name="Page-1">
    <mxGraphModel dx="1038" dy="587" grid="1" gridSize="10" guides="1" tooltips="1" connect="1" arrows="1" fold="1" page="1" pageScale="1" pageWidth="850" pageHeight="1100" math="0" shadow="0">
      <root>
        <mxCell id="0" />
        <mxCell id="1" parent="0" />
        <mxCell id="lQTJzyTIPFU2XTAMFB-j-1" value="Test" style="rounded=1;whiteSpace=wrap;html=1;" vertex="1" parent="1">
          <mxGeometry x="160" y="290" width="120" height="60" as="geometry" />
        </mxCell>
      </root>
    </mxGraphModel>
  </diagram>
</mxfile>
